<svg clip-rule="evenodd" fill-rule="evenodd" stroke-linejoin="round" stroke-miterlimit="1.41421" viewBox="0 0 17 17" xmlns="http://www.w3.org/2000/svg"><circle cx="8.228" cy="8.252" fill="#fff" r="8.166"/><path d="m8.986 10.093-.084 1.806s.864.132.914 1.084c.009 1.273-1.225 1.241-1.225 1.241s-1.2-.084-1.186-1.226c.013-1.044 1.1-1.159 1.1-1.159l.123-1.746zm-.375 2.242c.375 0 .679.305.679.68s-.304.68-.679.68c-.376 0-.68-.305-.68-.68s.304-.68.68-.68z" fill="#17e0cb"/><path d="m4.125 11.177c.109-1.087 1.198-1.467 2.055-.791l8.012-5.463c-.01.026.051.155-.042.235-1.781 1.534-3.461 2.992-5.18 4.464l-1.065-.002-1.45 1.05c.531 1.787-1.708 2.377-2.247.931-.713.227-1.315.133-1.855-.142 0 0-.176-.117-.058-.296.118-.178.318-.096.318-.096.35.235.842.287 1.512.11zm1.208-.629c.373 0 .676.302.676.675s-.303.676-.676.676-.676-.303-.676-.676.303-.675.676-.675zm3.775-1.673c-.089-.114-.253-.135-.367-.047l-.178.138c-.114.088-.135.253-.047.367s.253.135.367.047l.178-.138c.114-.088.135-.252.047-.367z" fill="#af40cd"/><path d="m8.19 8.399.909-.629.301-5.49-.177.111z" fill="#17e0cb"/></svg>