<?xml version="1.0" encoding="UTF-8" standalone="no"?><!DOCTYPE svg PUBLIC "-//W3C//DTD SVG 1.1//EN" "http://www.w3.org/Graphics/SVG/1.1/DTD/svg11.dtd"><svg width="100%" height="100%" viewBox="0 0 9 9" version="1.1" xmlns="http://www.w3.org/2000/svg" xmlns:xlink="http://www.w3.org/1999/xlink" xml:space="preserve" xmlns:serif="http://www.serif.com/" style="fill-rule:evenodd;clip-rule:evenodd;stroke-linejoin:round;stroke-miterlimit:1.41421;"><path id="Facebook__x28_alt_x29_" d="M8.749,1.477c0,-0.755 -0.683,-1.438 -1.439,-1.438l-5.753,0c-0.756,0 -1.438,0.683 -1.438,1.438l0,5.754c0,0.755 0.682,1.438 1.438,1.438l2.877,0l0,-3.26l-1.055,0l0,-1.439l1.055,0l0,-0.56c0,-0.966 0.725,-1.837 1.618,-1.837l1.162,0l0,1.438l-1.162,0c-0.127,0 -0.276,0.155 -0.276,0.386l0,0.573l1.438,0l0,1.439l-1.438,0l0,3.26l1.534,0c0.756,0 1.439,-0.683 1.439,-1.438l0,-5.754Z" style="fill:#61b5c1;fill-rule:nonzero;"/></svg>