<?xml version="1.0" encoding="UTF-8" standalone="no"?><!DOCTYPE svg PUBLIC "-//W3C//DTD SVG 1.1//EN" "http://www.w3.org/Graphics/SVG/1.1/DTD/svg11.dtd"><svg width="100%" height="100%" viewBox="0 0 304 316" version="1.1" xmlns="http://www.w3.org/2000/svg" xmlns:xlink="http://www.w3.org/1999/xlink" xml:space="preserve" xmlns:serif="http://www.serif.com/" style="fill-rule:evenodd;clip-rule:evenodd;stroke-linecap:round;stroke-linejoin:round;stroke-miterlimit:1.5;"><g id="hairdryer-graphic"><path d="M20.674,130.723l185.148,-18.087l93.698,6.044l3.424,196.363c-123.537,-12.598 -31.053,-39.612 -131.337,-74.008c-11.127,-3.834 -21.27,-10.08 -29.701,-18.292c-34.14,-33.315 -67.974,-97.687 -118.685,-89.155c-1.968,0.332 -0.808,-2.657 -2.547,-2.865Z" style="fill:#61b5c1;stroke:#5eadb8;stroke-width:0.8px;"/><path d="M19.412,127.154c0,0 59.737,-53.927 76.172,-61.201c25.258,-11.178 53.696,8.749 84.494,-6.301c28.248,-13.804 64.285,-59.006 64.285,-59.006l55.157,-0.023l0,118.057c-16.42,27.842 -72.977,20.81 -131.856,6.906c-50.561,-11.94 -65.294,10.486 -146.339,5.137l-1.913,-3.569Z" style="fill:#c062da;stroke:#a265b2;stroke-width:0.8px;"/><g id="hair-drayer__icon"><path d="M15.688,130.767l2.217,3.958c2.193,-1.051 3.064,-0.041 5.35,-0.679l-4.021,-7.325c-2.035,1.33 -1.573,2.925 -3.546,4.046Z" style="fill:#af40cd;"/><path d="M15.694,130.779l-2.453,1.224c-1.516,-0.163 -3.049,-0.219 -4.62,-0.101c-5.07,1.4 -7.629,3.713 -7.595,6.968l2.174,3.96c1.234,0.817 2.565,0.848 4.325,0.694c1.626,3.284 3.49,6.29 5.794,9.151c0,0 0.472,0.65 1.599,-0.019c1.118,-0.552 1.261,-1.533 1.261,-1.533c-1.763,-2.692 -3.565,-5.41 -4.665,-7.643c-0.31,-0.939 -0.264,-1.887 0.113,-2.203c2.052,-2.04 3.001,-3.279 3.784,-5.103l2.493,-1.37l-2.21,-4.025Z" style="fill:#17e0cb;"/><path d="M1.059,138.929l-0.887,0.487c0.355,1.37 1.023,2.615 2.042,3.721l0.887,-0.487l-2.042,-3.721Z" style="fill:#af40cd;"/><path d="M13.488,146.974l-0.624,-2.805c-0.254,-0.145 -0.542,-0.107 -0.878,0.2l1.502,2.605Z" style="fill:#af40cd;"/><path d="M15.391,152.326l0.601,1.313c-0.303,0.292 -0.664,0.502 -1.089,0.623l-0.839,-1.291c0.538,-0.119 0.987,-0.365 1.327,-0.645Z" style="fill:#af40cd;"/><path d="M5.24,135.368c-1.563,0.859 -2.135,2.825 -1.277,4.388c0.858,1.563 2.824,2.136 4.387,1.277c1.564,-0.858 2.136,-2.824 1.278,-4.387c-0.858,-1.563 -2.824,-2.136 -4.388,-1.278Z" style="fill:#af40cd;"/><path d="M6.029,136.805c-0.77,0.423 -1.052,1.392 -0.629,2.162c0.423,0.77 1.391,1.053 2.162,0.63c0.77,-0.423 1.052,-1.392 0.629,-2.162c-0.423,-0.771 -1.392,-1.053 -2.162,-0.63Z" style="fill:#17e0cb;"/></g></g></svg>