<?xml version="1.0" encoding="UTF-8" standalone="no"?><!DOCTYPE svg PUBLIC "-//W3C//DTD SVG 1.1//EN" "http://www.w3.org/Graphics/SVG/1.1/DTD/svg11.dtd"><svg width="100%" height="100%" viewBox="0 0 480 710" version="1.1" xmlns="http://www.w3.org/2000/svg" xmlns:xlink="http://www.w3.org/1999/xlink" xml:space="preserve" xmlns:serif="http://www.serif.com/" style="fill-rule:evenodd;clip-rule:evenodd;stroke-linecap:round;stroke-linejoin:round;stroke-miterlimit:1.5;"><g id="hair-dryer-small"><g><path d="M119.013,12.255c10.081,-13.205 102.257,-24.2 167.154,15.491c64.896,39.691 102.652,100.046 80.285,174.903c-33.716,112.835 4.601,229.581 63.89,296.101c81.593,91.546 37.053,187.636 37.053,210.492c-38.743,0 -236.142,0 -236.142,0c0,0 -44.314,0.182 28.649,-179.313c67.834,-166.881 -130.872,-317.632 -140.889,-517.674Z" style="fill:url(#_Linear1);"/><clipPath id="_clip2"><path d="M119.013,12.255c10.081,-13.205 102.257,-24.2 167.154,15.491c64.896,39.691 102.652,100.046 80.285,174.903c-33.716,112.835 4.601,229.581 63.89,296.101c81.593,91.546 37.053,187.636 37.053,210.492c-38.743,0 -236.142,0 -236.142,0c0,0 -44.314,0.182 28.649,-179.313c67.834,-166.881 -130.872,-317.632 -140.889,-517.674Z"/></clipPath><g clip-path="url(#_clip2)"><path d="M119.013,11.582c51.612,-17.656 153.925,19.858 158.899,172.193c1.494,45.763 -31.819,164.899 55.586,250.586c247.393,242.53 175.331,322.847 88.844,274.881l-174.344,0l17.258,-312.493l-48.27,-108.33l-59.633,-244.392l-38.34,-32.445Z" style="fill:url(#_Linear3);"/></g><path d="M120.113,12.255c0,0 -17.746,79.257 -14.329,161.275c2.168,52.053 12.861,105.218 42.024,139.942c122.389,145.725 -124.277,368.976 -147.768,395.77c66.271,0 284.48,0 284.48,0c0,0 90.827,-94.52 50.866,-208.746c-39.962,-114.225 -97.826,-118.617 -104.133,-228.761c-6.306,-110.144 -18.346,-234.969 -111.14,-259.48Z" style="fill:url(#_Linear4);"/><clipPath id="_clip5"><path d="M120.113,12.255c0,0 -17.746,79.257 -14.329,161.275c2.168,52.053 12.861,105.218 42.024,139.942c122.389,145.725 -124.277,368.976 -147.768,395.77c66.271,0 284.48,0 284.48,0c0,0 90.827,-94.52 50.866,-208.746c-39.962,-114.225 -97.826,-118.617 -104.133,-228.761c-6.306,-110.144 -18.346,-234.969 -111.14,-259.48Z"/></clipPath><g clip-path="url(#_clip5)"><path d="M119.013,17.574c0,0 37.186,16.542 53.779,119.916c16.593,103.374 -31.945,152.614 29.804,223.258c61.749,70.645 62.054,132.926 28.657,197.05c-62.854,120.685 -231.213,151.444 -231.213,151.444l385.796,0l-55.534,-267.723l-99.049,-328.263l-112.24,-127.494l0,31.812Z" style="fill:url(#_Linear6);"/></g></g><g><path d="M98.538,23.238c0,0 -4.697,9.573 -6.835,9.069c-6.368,-1.503 0.464,-9.581 -5.603,-13.433c-3.125,-1.985 -9.597,10.546 -13.735,4.008c-1.785,-2.82 -5.723,-8.728 -5.723,-8.728" style="fill:none;stroke:#5eadb8;stroke-width:0.8px;"/><g id="hair-drayer__icon"><path d="M117.267,9.05l-1.869,4.134c2.147,1.141 1.851,2.441 3.721,3.903l3.509,-7.584c-2.278,-0.849 -3.287,0.47 -5.361,-0.453Z" style="fill:#962eb3;"/><path d="M117.262,9.062l-2.442,-1.248c-0.769,-1.316 -1.633,-2.584 -2.661,-3.778c-4.135,-3.249 -7.515,-3.936 -10.115,-1.977l-1.897,4.099c0.075,1.478 0.84,2.568 2.008,3.894c-1.678,3.257 -2.99,6.541 -3.926,10.094c0,0 -0.243,0.765 0.964,1.275c1.108,0.573 1.983,0.105 1.983,0.105c1.12,-3.016 2.238,-6.08 3.382,-8.29c0.572,-0.807 1.363,-1.333 1.84,-1.217c2.861,0.441 4.421,0.469 6.353,0.017l2.582,1.194l1.929,-4.168Z" style="fill:#17e0cb;"/><path d="M102.016,2.12l-0.919,-0.425c-0.892,1.099 -1.497,2.376 -1.782,3.852l0.918,0.425l1.783,-3.852Z" style="fill:#af40cd;"/><path d="M102.918,16.898l1.887,-2.167c-0.034,-0.291 -0.236,-0.499 -0.682,-0.587l-1.205,2.754Z" style="fill:#af40cd;"/><path d="M99.739,21.606l-0.7,1.263c-0.415,-0.071 -0.798,-0.237 -1.147,-0.507l0.541,-1.441c0.415,0.362 0.879,0.578 1.306,0.685Z" style="fill:#af40cd;"/><path d="M107.363,3.372c-1.618,-0.749 -3.54,-0.043 -4.289,1.576c-0.749,1.619 -0.043,3.541 1.576,4.289c1.618,0.749 3.54,0.043 4.289,-1.575c0.749,-1.619 0.043,-3.541 -1.576,-4.29Z" style="fill:#af40cd;"/><path d="M106.675,4.86c-0.797,-0.369 -1.744,-0.021 -2.113,0.776c-0.369,0.798 -0.022,1.745 0.776,2.114c0.798,0.369 1.745,0.021 2.114,-0.777c0.369,-0.797 0.021,-1.744 -0.777,-2.113Z" style="fill:#17e0cb;"/></g></g></g><defs><linearGradient id="_Linear1" x1="0" y1="0" x2="1" y2="0" gradientUnits="userSpaceOnUse" gradientTransform="matrix(217.538,593.348,-593.348,217.538,200.358,60.1158)"><stop offset="0" style="stop-color:#61b5c2;stop-opacity:1"/><stop offset="1" style="stop-color:#437b9b;stop-opacity:1"/></linearGradient><linearGradient id="_Linear3" x1="0" y1="0" x2="1" y2="0" gradientUnits="userSpaceOnUse" gradientTransform="matrix(163.817,539.058,-539.058,163.817,181.728,73.972)"><stop offset="0" style="stop-color:#5eb0bf;stop-opacity:1"/><stop offset="1" style="stop-color:#556eb2;stop-opacity:1"/></linearGradient><linearGradient id="_Linear4" x1="0" y1="0" x2="1" y2="0" gradientUnits="userSpaceOnUse" gradientTransform="matrix(80.5688,654.479,-654.479,80.5688,150.685,37.8966)"><stop offset="0" style="stop-color:#ac41c9;stop-opacity:1"/><stop offset="0.52" style="stop-color:#a65ad6;stop-opacity:1"/><stop offset="1" style="stop-color:#a463da;stop-opacity:1"/></linearGradient><linearGradient id="_Linear6" x1="0" y1="0" x2="1" y2="0" gradientUnits="userSpaceOnUse" gradientTransform="matrix(181.106,487.797,-487.797,181.106,145.769,22.56)"><stop offset="0" style="stop-color:#a94cce;stop-opacity:1"/><stop offset="1" style="stop-color:#814ad0;stop-opacity:1"/></linearGradient></defs></svg>