<?xml version="1.0" encoding="UTF-8" standalone="no"?><!DOCTYPE svg PUBLIC "-//W3C//DTD SVG 1.1//EN" "http://www.w3.org/Graphics/SVG/1.1/DTD/svg11.dtd"><svg width="100%" height="100%" viewBox="0 0 9 9" version="1.1" xmlns="http://www.w3.org/2000/svg" xmlns:xlink="http://www.w3.org/1999/xlink" xml:space="preserve" xmlns:serif="http://www.serif.com/" style="fill-rule:evenodd;clip-rule:evenodd;stroke-linejoin:round;stroke-miterlimit:1.41421;"><path d="M1.328,0.039l6.414,0c0.61,0 1.108,0.451 1.108,1.108l0,6.414c0,0.657 -0.498,1.108 -1.108,1.108l-6.414,0c-0.61,0 -1.108,-0.451 -1.108,-1.108l0,-6.414c0,-0.657 0.498,-1.108 1.108,-1.108Zm5.179,0.959c-0.214,0 -0.389,0.174 -0.389,0.388l0,0.93c0,0.214 0.175,0.389 0.389,0.389l0.975,0c0.214,0 0.389,-0.175 0.389,-0.389l0,-0.93c0,-0.214 -0.175,-0.388 -0.389,-0.388l-0.975,0Zm1.368,2.691l-0.76,0c0.072,0.234 0.111,0.483 0.111,0.74c0,1.435 -1.201,2.599 -2.683,2.599c-1.481,0 -2.682,-1.164 -2.682,-2.599c0,-0.257 0.039,-0.506 0.11,-0.74l-0.792,0l0,3.645c0,0.189 0.154,0.343 0.343,0.343l6.01,0c0.188,0 0.343,-0.154 0.343,-0.343l0,-3.645l0,0Zm-3.332,-1.033c-0.957,0 -1.733,0.752 -1.733,1.679c0,0.928 0.776,1.68 1.733,1.68c0.957,0 1.733,-0.752 1.733,-1.68c0,-0.927 -0.776,-1.679 -1.733,-1.679Z" style="fill:#61b5c1;fill-rule:nonzero;"/></svg>