<?xml version="1.0" encoding="UTF-8" standalone="no"?><!DOCTYPE svg PUBLIC "-//W3C//DTD SVG 1.1//EN" "http://www.w3.org/Graphics/SVG/1.1/DTD/svg11.dtd"><svg width="100%" height="100%" viewBox="0 0 1280 800" version="1.1" xmlns="http://www.w3.org/2000/svg" xmlns:xlink="http://www.w3.org/1999/xlink" xml:space="preserve" xmlns:serif="http://www.serif.com/" style="fill-rule:evenodd;clip-rule:evenodd;stroke-linecap:round;stroke-linejoin:round;stroke-miterlimit:1.5;"><rect id="Artboard1" x="0" y="0" width="1280" height="800" style="fill:none;"/><clipPath id="_clip1"><rect id="Artboard11" serif:id="Artboard1" x="0" y="0" width="1280" height="800"/></clipPath><g clip-path="url(#_clip1)"><g id="ShearMadness__logo"><g id="Scissors"><path d="M382.991,629.567c0,0 -44.238,-9.868 -59.244,-207.95c-2.197,-29 -3.768,-62.035 -4.481,-99.664c2.045,-91.029 -14.137,-145.585 63.336,-195.537c-10.001,-16.346 -8.929,-109.986 82.778,-115.503c6.812,-0.405 13.47,2.14 18.274,6.987c9.257,9.21 8.976,18.94 9.423,22.513c10.508,-6.445 23.579,-21.684 30.563,-13.38c7.338,10.193 -22.939,44.444 -37.145,48.696c2.727,18.954 -37.904,97.231 -79.992,76.47c-15.932,15.959 -22.24,15.621 -26.254,91.779c0.096,76.033 2.742,385.589 2.742,385.589Zm27.706,-558.408c12.609,-25.124 34.085,-39.882 47.928,-32.934c13.844,6.947 14.846,32.986 2.237,58.11c-12.61,25.125 -34.086,39.882 -47.929,32.935c-13.844,-6.948 -14.846,-32.986 -2.236,-58.111Z" style="fill:#c5c5c5;"/><clipPath id="_clip2"><path d="M382.991,629.567c0,0 -44.238,-9.868 -59.244,-207.95c-2.197,-29 -3.768,-62.035 -4.481,-99.664c2.045,-91.029 -14.137,-145.585 63.336,-195.537c-10.001,-16.346 -8.929,-109.986 82.778,-115.503c6.812,-0.405 13.47,2.14 18.274,6.987c9.257,9.21 8.976,18.94 9.423,22.513c10.508,-6.445 23.579,-21.684 30.563,-13.38c7.338,10.193 -22.939,44.444 -37.145,48.696c2.727,18.954 -37.904,97.231 -79.992,76.47c-15.932,15.959 -22.24,15.621 -26.254,91.779c0.096,76.033 2.742,385.589 2.742,385.589Zm27.706,-558.408c12.609,-25.124 34.085,-39.882 47.928,-32.934c13.844,6.947 14.846,32.986 2.237,58.11c-12.61,25.125 -34.086,39.882 -47.929,32.935c-13.844,-6.948 -14.846,-32.986 -2.236,-58.111Z"/></clipPath><g clip-path="url(#_clip2)"><path d="M382.914,624.66c0,0 -10.406,-33.449 -12.677,-40.749c-0.288,-0.928 -0.488,-1.882 -0.598,-2.849c-4.221,-36.69 -20.789,-134.21 -8.137,-201.526c0.284,-1.469 0.909,-2.851 1.825,-4.034c4.436,-5.739 18.025,-23.293 18.025,-23.293" style="fill:#aaa;"/><path d="M469.271,51.836c-0.24,30.952 -1.73,48.438 -33.492,74.582c0.668,8.871 -16.676,22.313 -27.639,25.738c32.546,9.697 58.634,-13.749 78.683,-74.808l-17.552,-25.512Z" style="fill:#aaa;"/><path d="M319.266,320.113c1.953,-2.028 59.06,7.863 62.086,35.026l-1.694,-35.026l-60.392,0Z" style="fill:#aaa;"/></g><path d="M382.991,629.567c0,0 -44.238,-9.868 -59.244,-207.95c-2.197,-29 -3.768,-62.035 -4.481,-99.664c2.045,-91.029 -14.137,-145.585 63.336,-195.537c-10.001,-16.346 -8.929,-109.986 82.778,-115.503c6.812,-0.405 13.47,2.14 18.274,6.987c9.257,9.21 8.976,18.94 9.423,22.513c10.508,-6.445 23.579,-21.684 30.563,-13.38c7.338,10.193 -22.939,44.444 -37.145,48.696c2.727,18.954 -37.904,97.231 -79.992,76.47c-15.932,15.959 -22.24,15.621 -26.254,91.779c0.096,76.033 2.742,385.589 2.742,385.589Zm27.706,-558.408c12.609,-25.124 34.085,-39.882 47.928,-32.934c13.844,6.947 14.846,32.986 2.237,58.11c-12.61,25.125 -34.086,39.882 -47.929,32.935c-13.844,-6.948 -14.846,-32.986 -2.236,-58.111Z" style="fill:none;stroke:#060000;stroke-width:2.08px;"/><path d="M679.748,321.92c0,0 29.697,-34.275 -208.011,-45.889c-18.211,-0.89 -64.111,-15.212 -85.077,-15.609c-65.608,2.647 -96.489,-2.126 -117.618,27.126c-16.667,11.29 -93.766,23.462 -98.451,36.434c-17.685,-5.845 -136.898,12.987 -114.75,81.91c0.772,2.391 1.931,4.639 3.429,6.656c16.777,22.363 65.177,27.142 102.281,4.701c22.156,-13.402 50.4,-35.474 40.829,-71.817c5.677,-15.378 12.87,-22.091 91.779,-26.254c76.032,0.096 385.589,2.742 385.589,2.742Zm-562.062,28.852c24.88,-13.084 50.933,-12.576 58.142,1.133c7.209,13.709 -7.138,35.462 -32.019,48.545c-22.857,12.02 -46.703,12.569 -56.02,1.95c-0.825,-0.94 -1.536,-1.968 -2.122,-3.083c-7.209,-13.709 7.138,-35.461 32.019,-48.545Z" style="fill:#c5c5c5;"/><clipPath id="_clip3"><path d="M679.748,321.92c0,0 29.697,-34.275 -208.011,-45.889c-18.211,-0.89 -64.111,-15.212 -85.077,-15.609c-65.608,2.647 -96.489,-2.126 -117.618,27.126c-16.667,11.29 -93.766,23.462 -98.451,36.434c-17.685,-5.845 -136.898,12.987 -114.75,81.91c0.772,2.391 1.931,4.639 3.429,6.656c16.777,22.363 65.177,27.142 102.281,4.701c22.156,-13.402 50.4,-35.474 40.829,-71.817c5.677,-15.378 12.87,-22.091 91.779,-26.254c76.032,0.096 385.589,2.742 385.589,2.742Zm-562.062,28.852c24.88,-13.084 50.933,-12.576 58.142,1.133c7.209,13.709 -7.138,35.462 -32.019,48.545c-22.857,12.02 -46.703,12.569 -56.02,1.95c-0.825,-0.94 -1.536,-1.968 -2.122,-3.083c-7.209,-13.709 7.138,-35.461 32.019,-48.545Z"/></clipPath><g clip-path="url(#_clip3)"><path d="M672.123,320.153c0,0 -33.055,-11.524 -40.617,-14.16c-1.017,-0.354 -2.069,-0.601 -3.137,-0.737c-36.782,-4.758 -133.998,-23.229 -201.216,-9.132c-1.569,0.339 -3.027,1.068 -4.24,2.12c-5.789,5.013 -23.247,20.159 -23.247,20.159" style="fill:#aaa;"/><path d="M101.258,411.044c30.824,-2.811 49.921,-2.85 73.337,-36.674c8.895,-0.071 27.402,-12.115 29.905,-23.324c7.96,29.595 -18.811,53.923 -74.499,74.918l-28.743,-14.92Z" style="fill:#aaa;"/></g><path d="M679.748,321.92c0,0 29.697,-34.275 -208.011,-45.889c-18.211,-0.89 -64.111,-15.212 -85.077,-15.609c-65.608,2.647 -96.489,-2.126 -117.618,27.126c-16.667,11.29 -93.766,23.462 -98.451,36.434c-17.685,-5.845 -136.898,12.987 -114.75,81.91c0.772,2.391 1.931,4.639 3.429,6.656c16.777,22.363 65.177,27.142 102.281,4.701c22.156,-13.402 50.4,-35.474 40.829,-71.817c5.677,-15.378 12.87,-22.091 91.779,-26.254c76.032,0.096 385.589,2.742 385.589,2.742Zm-562.062,28.852c24.88,-13.084 50.933,-12.576 58.142,1.133c7.209,13.709 -7.138,35.462 -32.019,48.545c-22.857,12.02 -46.703,12.569 -56.02,1.95c-0.825,-0.94 -1.536,-1.968 -2.122,-3.083c-7.209,-13.709 7.138,-35.461 32.019,-48.545Z" style="fill:none;stroke:#060000;stroke-width:2.08px;"/></g><g id="screw"><ellipse cx="354.534" cy="291.804" rx="24.403" ry="24.488" style="fill:#aaa;"/><circle cx="352.242" cy="289.827" r="21.645" style="fill:#aabdb9;stroke:#060000;stroke-width:2.08px;"/><path d="M337.066,305.254l13.451,-13.006l17.656,-17.069" style="fill:#fafafa;stroke:#060000;stroke-width:1.25px;"/></g><g id="Shear"><g id="S-shear-" serif:id="S(shear)"><path d="M537.118,488.69c-1.991,16.702 -15.465,21.301 -24.894,14.851c-4.279,-2.969 -6.936,-7.759 -7.188,-12.961c-0.253,-5.203 1.927,-10.227 5.899,-13.597c33.733,-28.391 34.124,-51.706 35.058,-66.602" style="fill:none;"/><clipPath id="_clip4"><path d="M537.118,488.69c-1.991,16.702 -15.465,21.301 -24.894,14.851c-4.279,-2.969 -6.936,-7.759 -7.188,-12.961c-0.253,-5.203 1.927,-10.227 5.899,-13.597c33.733,-28.391 34.124,-51.706 35.058,-66.602"/></clipPath><g clip-path="url(#_clip4)"><path d="M538.13,450.677c7.27,3.21 7.958,17.623 1.536,32.166c-6.421,14.542 -17.537,23.742 -24.807,20.531c-7.27,-3.21 -7.959,-17.623 -1.537,-32.165c6.422,-14.542 17.538,-23.742 24.808,-20.532Z" style="fill:#93fde8;"/></g><path d="M537.118,488.69c-1.991,16.702 -15.465,21.301 -24.894,14.851c-4.279,-2.969 -6.936,-7.759 -7.188,-12.961c-0.253,-5.203 1.927,-10.227 5.899,-13.597c33.733,-28.391 34.124,-51.706 35.058,-66.602" style="fill:none;stroke:#09c7a1;stroke-width:8.33px;"/><path d="M472.422,340.82c-32.667,58.831 -9.416,177.794 27.187,202.224c16.279,10.866 -54.275,-1.594 -76.577,-66.487c-17.289,-43.373 23.436,-118.568 49.39,-135.737Z" style="fill:#93fde8;"/><path d="M547.135,158.055c-8.277,29.508 -19.522,91.37 10.863,135.142c57.248,82.47 86.491,135.898 88.271,193.097c13.575,-12.695 17.743,-48.114 15.946,-93.618l-28.724,-72.563l-60.455,-79.225c-12.617,-21.752 -20.493,-50.478 -25.901,-82.833Z" style="fill:#89fde6;"/><path d="M584.294,103.779c-1.001,-2.447 -98.72,88.269 -12.889,209.909c82.112,116.369 88.26,148.674 54.954,208.074" style="fill:none;stroke:#09c7a1;stroke-width:8.33px;"/><path d="M592.083,164.448c0,0 -79.772,33.821 -75.008,95.722c0.686,10.338 8.794,18.638 19.113,19.566c57.076,5.692 95.091,-57.008 113.219,-105.157c7.349,-19.517 21.373,-60.341 2.902,-79.282c-8.104,-8.311 -23.591,-9.17 -33.773,-7.489c-19.596,3.236 -37.291,15.111 -48.295,31.488c-22.324,33.224 -22.476,67.077 -5.575,107.781c4.973,11.953 12.38,22.74 21.748,31.674c73.93,70.715 113.937,212.23 24.432,275.051c-3.624,2.551 -7.517,4.693 -11.61,6.39c-48.66,20.137 -85.909,17.17 -114.758,-11.794c-6.848,-6.882 -11.982,-15.278 -14.987,-24.509c-30.551,-94.004 -15.323,-155.764 29.108,-176.733c7.249,-3.379 15.727,-2.795 22.445,1.546c25.299,16.202 33.263,82.454 14.739,166.052" style="fill:none;stroke:#09c7a1;stroke-width:8.33px;"/><path d="M507.914,325.212c-9.216,0.678 -70.11,12.011 -83.592,101.73c-18.471,122.915 93.907,140.384 158.729,119.293" style="fill:none;stroke:#09c7a1;stroke-width:8.33px;"/></g><g id="h-shear-" serif:id="h(shear)"><path d="M704.469,190.263c-5.135,-22.663 14.47,-40.849 37.61,-58.395l-26.947,367.213l-46.504,17.562l35.841,-326.38Z" style="fill:#93fde8;"/><path d="M754.833,299.051l34.696,-8.803c8.708,32.868 4.942,156.465 29.331,168.174c-15.964,9.612 -32.073,12.874 -48.395,6.855c-0.124,-15.721 -16.175,-10.775 -14.899,-24.791c9.91,-108.834 8.514,-138.343 -0.733,-141.435Z" style="fill:#93fde8;"/><path d="M744.568,121.68l1.99,1.363l1.262,2.054l0.316,2.391l-29.267,373.79c-0.949,3.531 -2.389,4.14 -3.589,4.911c-11.705,4.769 -23.472,9.431 -34.964,14.678c0,0 -6.809,3.494 -12.342,0.896c-4.646,-2.181 -7.615,-7.371 -7.119,-12.599c4.468,-39.634 9.388,-79.649 13.809,-119.605c7.64,-69.048 14.803,-138.042 22.339,-207.361l0.568,-5.217l0.571,-5.223l0.437,-1.659l0.903,-1.458l38.463,-45.352l1.909,-1.474l2.343,-0.569c0.79,0.145 1.581,0.29 2.371,0.434Zm-35.104,53.1c-12.027,110.064 -23.222,220.514 -36.407,329.945c-0.484,4.017 -0.998,7.59 0.721,6.49l0.84,-0.475c10.84,-5.003 21.931,-9.427 32.982,-13.929l27.59,-352.365c-8.576,10.112 -17.151,20.223 -25.726,30.334Z" style="fill:#09c7a1;fill-rule:nonzero;"/><path d="M764.002,105.837c3.928,0.062 7.834,1.573 10.27,4.674c5.768,7.342 3.604,17.707 1.858,25.854c-6.8,31.74 -24.13,60.706 -45.142,86.022c-20.412,24.593 -46.264,45.442 -76.432,55.042c-3.229,1.028 -7.065,1.464 -9.074,-1.46c-2.556,-3.72 0.689,-8.014 6.043,-9.732c37.195,-12.114 66.799,-41.944 87.843,-75.034c11.937,-18.77 22.524,-39.03 26.105,-60.779c0.718,-4.361 2.016,-9.601 -0.298,-12.741c-3.094,-1.505 -7.308,1.474 -11.039,4.123c-18.574,13.192 -32.255,33.213 -45.016,52.285c0,0 -4.487,4.242 -8.152,1.811c-2.191,-1.454 -3.154,-4.501 -2.184,-6.955c0.689,-1.744 1.177,-1.998 1.726,-2.808c13.279,-19.508 27.426,-39.355 45.862,-53.01c5.247,-3.885 11.159,-7.316 17.63,-7.292Z" style="fill:#09c7a1;fill-rule:nonzero;"/><path d="M779.506,282.821c4.526,0.057 8.954,1.708 12.315,4.823c9.206,8.529 9.986,22.384 10.588,34.026c1.34,25.891 -2.296,51.571 0.666,78.534c1.75,15.936 4.172,32.04 9.925,46.772c1.186,3.035 2.474,6.144 4.544,8.514c0,0 3.21,5.59 -0.4,8.574c-2.527,2.089 -6.4,1.409 -8.782,-1.494c-5.801,-7.071 -8.288,-16.515 -10.636,-25.76c-7.404,-29.155 -8.031,-59.731 -6.938,-89.576c0.527,-15.068 2.018,-30.468 -3.148,-44.809c-0.187,-0.518 -0.388,-1.031 -0.605,-1.537c-0.172,-0.398 -0.354,-0.791 -0.549,-1.178c-0.151,-0.298 -0.308,-0.593 -0.475,-0.882c-1.955,-3.395 -6.299,-5.058 -10.729,-3.808c-10.169,2.868 -18.357,10.993 -25.982,18.934c-6.478,6.747 -12.473,13.972 -17.867,21.561c0,0 -7.163,4.947 -9.98,-0.592c-1.518,-2.984 0.58,-6.26 3.035,-9.53c10.783,-14.365 22.814,-28.472 37.965,-37.278c5.219,-3.033 10.959,-5.321 17.053,-5.294Z" style="fill:#09c7a1;fill-rule:nonzero;"/><path d="M754.833,299.051c3.289,0.09 6.484,1.409 8.846,3.751c6.925,6.868 6.8,17.638 6.837,26.527c0.125,29.931 -8.113,59.2 -9.766,89.814c-0.711,13.163 -0.056,27.29 9.454,37.487c10.529,11.291 30.781,10.819 41.944,-2.779c14.069,-17.137 13.779,-43.74 9.932,-66.179c-0.786,-4.585 -0.698,-3.397 -0.724,-3.714c-0.322,-3.95 4.306,-7.573 8.251,-5.706c1.204,0.57 1.895,0.983 2.866,3.003c0,0 1.004,4.038 1.507,7.542c4.007,27.878 2.016,59.281 -17.176,76.961c-11.873,10.936 -30.426,13.97 -44.615,6.677c-13.434,-6.906 -21.158,-22.035 -22.77,-37.955c-3.847,-37.981 10.894,-76.715 9.416,-109.235c-0.221,-4.851 -0.111,-10.256 -3.068,-13.945c-1.078,-1.344 -4.293,0.216 -4.293,0.216c-4.738,1.885 -5.669,0.07 -7.064,-1.801c-2.191,-2.94 -0.822,-7.439 2.979,-9.059c2.389,-1.018 4.478,-1.644 7.444,-1.605Zm66.779,86.19c0.335,1.063 -0.022,-0.079 0,0Z" style="fill:#09c7a1;fill-rule:nonzero;"/></g><g id="e-shear-" serif:id="e(shear)"><path d="M890.242,299.049c-32.167,17.95 -50.71,45.807 -48.6,88.682c4.511,34.749 21.871,52.385 60.452,41.757c-43.548,-26.489 -43.957,-71.488 -11.852,-130.439Z" style="fill:#93fde8;"/><path d="M948.657,379.743c3.653,10.165 -61.998,95.852 -102.57,29.457c-3.156,-5.158 -5.086,-10.972 -5.641,-16.993c-7.814,-83.346 77.055,-124.247 98.609,-105.625c32.216,27.833 -57.746,107.329 -68.656,101.6" style="fill:none;stroke:#09c7a1;stroke-width:8.33px;"/><path d="M913.424,284.254c-51.742,21.11 -66.388,144.119 -5.737,141.701" style="fill:none;stroke:#09c7a1;stroke-width:8.33px;"/></g><g id="a-shear-" serif:id="a(shear)"><path d="M1011.86,249.247c-34.614,6.256 -52.33,32.742 -54.858,81.675c-0.673,53.108 16.196,76.678 59.175,56.283c-38.569,-23.809 -42.398,-68.367 -4.317,-137.958Z" style="fill:#93fde8;"/><path d="M1052.4,236.594l32.176,-11.028c-5.989,61.788 -11.993,123.605 11.478,130.332l-26.996,9.909c-19.171,-3.55 -22.928,-51.83 -16.658,-129.213Z" style="fill:#93fde8;"/><path d="M1083.98,224.693l-32.01,11.667c0,0 -0.007,83.479 -0.008,103.335c-0.001,3.445 0.807,6.842 2.358,9.918c4.987,9.598 17.579,26.298 40.072,6.777c-4.392,-3.422 -7.589,-6.36 -9.877,-8.708c-3.336,-3.431 -5.117,-8.082 -4.927,-12.864c0.975,-24.549 4.392,-110.125 4.392,-110.125Z" style="fill:none;stroke:#09c7a1;stroke-width:8.33px;"/><path d="M1051.97,253.334c1.075,-6.228 -89.937,-35.589 -96.479,76.656c-0.077,1.331 -0.103,2.664 -0.079,3.997c2.117,111.533 100.332,40.744 95.909,7.303c0.215,-28.759 0.649,-87.956 0.649,-87.956Z" style="fill:none;stroke:#09c7a1;stroke-width:8.33px;"/><path d="M1050.73,252.518c-58.955,-38.773 -91.791,120.092 -33.592,132.679" style="fill:none;stroke:#09c7a1;stroke-width:8.33px;"/><path d="M1114.79,322.949c0,0 -12.912,37.528 -31.04,40.477" style="fill:none;stroke:#09c7a1;stroke-width:8.33px;"/></g><g id="r-shear-" serif:id="r(shear)"><circle cx="1198.2" cy="214.712" r="21.144" style="fill:#93fde8;"/><path d="M1114.79,224.693c-1.769,1.469 28.994,-23.665 29.411,-10.292l9.041,125.634l-29.93,8.026c1.442,-24.372 10.009,-138.761 -8.522,-123.368Z" style="fill:#93fde8;"/><path d="M1096.17,251.7c0,0 11.919,-30.552 25.968,-29.837c14.049,0.716 4.868,124.808 4.868,124.808l29.024,-9.912l-8.219,-117.745c0,0 -6.438,-15.765 -30.541,3.801" style="fill:none;stroke:#09c7a1;stroke-width:8.33px;"/><ellipse cx="1199.59" cy="213.322" rx="21.144" ry="23.162" style="fill:none;stroke:#09c7a1;stroke-width:8.33px;"/><path d="M1199.62,190.755c-2.149,-2.334 -55.29,1.515 -45.444,120.125" style="fill:none;stroke:#09c7a1;stroke-width:8.33px;"/></g></g><g id="Madness"><path id="M--madness-" serif:id="M (madness)" d="M315.684,779.739l4.17,-126.572l43.34,-15.284l12.291,29.853l27.102,-43.86l49.468,-18.325l-8.148,175.797l-46.224,-0.438l2.041,-87.888l-21.155,35.92l-23.95,-24.864l-2.47,76.018l-36.465,-0.357Z" style="fill:url(#_Linear5);stroke:#9a16be;stroke-width:1.67px;"/><g id="A--madness-" serif:id="A (madness)"><path d="M573.036,781.348l-43.038,0l-10.034,-74.666l-20.254,3.546l-9.158,71.12l-42.152,0l31.635,-186.792l59.042,-21.9l33.959,208.692Zm-57.87,-107.752l-10.3,2.875l5.852,-23.304l4.448,20.429Z" style="fill:url(#_Linear6);stroke:#9a16be;stroke-width:1.67px;"/></g><path id="N--madness-" serif:id="N (madness)" d="M701.823,781.348l0,-266.325l51.91,-18.884l44.681,122.526l1.964,-139.056l42.348,-16.876l0.127,318.615l-41.446,0l-52.333,-179.985l0,179.985l-47.251,0Z" style="fill:url(#_Linear7);stroke:#9a16be;stroke-width:1.67px;"/><g id="D--madness-" serif:id="D (madness)"><path d="M580.927,558.488l-3.721,222.86c0,0 119.623,-14.897 120.441,-152.645c0.597,-100.539 -45.187,-95.821 -76.504,-84.779c-11.687,3.548 -40.216,14.564 -40.216,14.564Zm39.38,22.696l-3.485,138.782c10.507,11.27 48.26,-64.796 39.445,-108.712c-3.55,-17.685 -9.914,-31.16 -35.96,-30.07Z" style="fill:url(#_Linear8);stroke:#9a16be;stroke-width:1.67px;"/></g><g id="E--madness-" serif:id="E (madness)"><path d="M846.826,459.905l0,321.443l87.897,0l0.103,-45.952l-50.734,0.108l0,-126.46l21.974,0l0,-50.045l-22.054,0l0.08,-72.94l42.622,-11.609l0.105,-43.864l-79.993,29.319Z" style="fill:url(#_Linear9);stroke:#9a16be;stroke-width:1.67px;"/></g><path id="S--madness-" serif:id="S (madness)" d="M947.838,426.33l107.042,-40.008l1.866,62.676l-28.074,6.334c0,0 -8.8,78.531 19.617,118.667c-20.636,9.989 -42.396,22.296 -42.396,22.296c0,0 -34.967,-42.92 -19.313,-121.666c-15.9,45.026 -36.286,143.6 -19.107,162.389c14.892,-12.426 60.717,-53.737 87.252,-53.202c15.748,20.847 -0.855,163.844 -67.889,201.286c-6.545,3.636 -14.518,3.574 -21.006,-0.163c-39.162,-22.756 -29.171,-113.362 -29.065,-107.937c0.195,10.005 48.389,0 48.389,0c0,0 -3.119,35.501 4.734,35.501c7.853,0 48.772,-86.908 31.892,-86.908c-16.881,0 -43.649,47.044 -83.603,47.044c-39.954,0 -10.723,-172.052 9.661,-246.309Z" style="fill:url(#_Linear10);stroke:#9a16be;stroke-width:1.67px;"/><path id="S--madness-1" serif:id="S (madness)" d="M1095.01,373.06l124.342,-43.426l0,80.412l-35.864,6.171c0,0 -4.818,87.837 23.599,132.714c-20.636,11.169 -52.075,24.493 -52.075,24.493c0,0 -34.454,-47.879 -18.801,-135.927c-15.9,50.345 -37.788,156.19 -20.609,177.199c13.002,-12.13 58.836,-44.811 87.92,-52.513c3.355,-0.868 6.921,-0.258 9.797,1.676c2.875,1.933 4.786,5.005 5.248,8.44c5.943,43.982 -21.96,174.417 -82.363,212.071c-6.619,4.099 -14.947,4.266 -21.725,0.434c-44.704,-25.387 -32.427,-131.696 -28.823,-125.226c4.603,8.264 43.217,3.799 52.918,2.537c0.489,-0.066 0.978,0.117 1.304,0.488c0.325,0.371 0.443,0.88 0.314,1.357c-2.115,7.928 -8.884,35.138 -2.175,35.138c7.853,0 48.772,-97.174 31.892,-97.174c-16.881,0 -43.688,50.581 -83.603,52.6c-45.573,2.306 -14.773,-197.165 8.704,-281.464Z" style="fill:url(#_Linear11);stroke:#9a16be;stroke-width:1.67px;"/></g></g></g><defs><linearGradient id="_Linear5" x1="0" y1="0" x2="1" y2="0" gradientUnits="userSpaceOnUse" gradientTransform="matrix(41.1433,334.031,-334.031,41.1433,769.075,472.235)"><stop offset="0" style="stop-color:#a42bc5;stop-opacity:1"/><stop offset="1" style="stop-color:#cb77e2;stop-opacity:1"/></linearGradient><linearGradient id="_Linear6" x1="0" y1="0" x2="1" y2="0" gradientUnits="userSpaceOnUse" gradientTransform="matrix(41.1433,334.031,-334.031,41.1433,769.075,472.235)"><stop offset="0" style="stop-color:#a42bc5;stop-opacity:1"/><stop offset="1" style="stop-color:#cb77e2;stop-opacity:1"/></linearGradient><linearGradient id="_Linear7" x1="0" y1="0" x2="1" y2="0" gradientUnits="userSpaceOnUse" gradientTransform="matrix(41.1433,334.031,-334.031,41.1433,770.465,472.235)"><stop offset="0" style="stop-color:#a42bc5;stop-opacity:1"/><stop offset="1" style="stop-color:#cb77e2;stop-opacity:1"/></linearGradient><linearGradient id="_Linear8" x1="0" y1="0" x2="1" y2="0" gradientUnits="userSpaceOnUse" gradientTransform="matrix(41.1433,334.031,-334.031,41.1433,769.075,472.235)"><stop offset="0" style="stop-color:#a42bc5;stop-opacity:1"/><stop offset="1" style="stop-color:#cb77e2;stop-opacity:1"/></linearGradient><linearGradient id="_Linear9" x1="0" y1="0" x2="1" y2="0" gradientUnits="userSpaceOnUse" gradientTransform="matrix(41.1433,334.031,-334.031,41.1433,770.465,472.235)"><stop offset="0" style="stop-color:#a42bc5;stop-opacity:1"/><stop offset="1" style="stop-color:#cb77e2;stop-opacity:1"/></linearGradient><linearGradient id="_Linear10" x1="0" y1="0" x2="1" y2="0" gradientUnits="userSpaceOnUse" gradientTransform="matrix(41.1433,334.031,-334.031,41.1433,774.635,472.235)"><stop offset="0" style="stop-color:#a42bc5;stop-opacity:1"/><stop offset="1" style="stop-color:#cb77e2;stop-opacity:1"/></linearGradient><linearGradient id="_Linear11" x1="0" y1="0" x2="1" y2="0" gradientUnits="userSpaceOnUse" gradientTransform="matrix(41.1433,334.031,-334.031,41.1433,774.635,472.235)"><stop offset="0" style="stop-color:#a42bc5;stop-opacity:1"/><stop offset="1" style="stop-color:#cb77e2;stop-opacity:1"/></linearGradient></defs></svg>