<svg clip-rule="evenodd" fill-rule="evenodd" stroke-linejoin="round" stroke-miterlimit="1.41421" viewBox="0 0 17 17" xmlns="http://www.w3.org/2000/svg"><circle cx="8.198" cy="8.252" fill="#fff" r="8.166"/><path d="m10.724 4.877.016 1.767c.945.052 1.053.56 1.953.771v-3.255c-.944.073-1.085.704-1.969.717z" fill="#af40cd"/><path d="m10.724 4.882-1.067-.042c-.487-.339-1-.646-1.558-.9-1.993-.472-3.3-.162-3.899.955v1.76c.268.51.717.77 1.347 1.047-.061 1.426.012 2.802.263 4.21 0 0 .039.311.549.294.485.021.718-.288.718-.288-.098-1.249-.203-2.515-.16-3.483.07-.379.263-.694.451-.731 1.083-.312 1.639-.557 2.248-1.033h1.108z" fill="#17e0cb"/><g fill="#af40cd"><path d="m4.2 4.922h-.394c-.136.534-.141 1.084 0 1.653h.394z"/><path d="m6.936 9.998.312-1.075c-.059-.097-.165-.138-.337-.096z"/><path d="m6.582 12.182-.041.56c-.158.043-.321.047-.488.009l-.045-.598c.206.06.406.06.574.029z"/><circle cx="6.295" cy="5.748" r="1.258"/></g><circle cx="6.295" cy="5.748" fill="#17e0cb" r=".62"/></svg>