<?xml version="1.0" encoding="UTF-8" standalone="no"?><!DOCTYPE svg PUBLIC "-//W3C//DTD SVG 1.1//EN" "http://www.w3.org/Graphics/SVG/1.1/DTD/svg11.dtd"><svg width="100%" height="100%" viewBox="0 0 487 126" version="1.1" xmlns="http://www.w3.org/2000/svg" xmlns:xlink="http://www.w3.org/1999/xlink" xml:space="preserve" xmlns:serif="http://www.serif.com/" style="fill-rule:evenodd;clip-rule:evenodd;stroke-linecap:round;stroke-linejoin:round;stroke-miterlimit:1.5;"><g><g id="Banner"><g><path d="M121.366,86.935c0,0 -14.259,31.183 -17.106,32.242c-2.846,1.06 -64.632,18.562 -102.093,-23.267c24.455,3.603 32.378,1.686 39.465,-3.722c-11.78,-4.255 -28.647,-20.491 -26.589,-31.809c10.345,7.624 37.664,24.794 72.112,11.897c29.96,19.161 34.211,14.659 34.211,14.659Z" style="fill:#fff;stroke:#000;stroke-width:2.61px;"/><path d="M103.322,119.502l-16.167,-20.343c11.464,-5.78 22.878,-10.146 34.211,-12.224c-4.664,12.739 -10.495,23.311 -18.044,32.567" style="fill:#205970;stroke:#000;stroke-width:2.61px;"/></g><g><path d="M365.634,86.935c0,0 14.259,31.183 17.106,32.242c2.846,1.06 64.632,18.562 102.093,-23.267c-24.455,3.603 -32.378,1.686 -39.465,-3.722c11.78,-4.255 28.647,-20.491 26.589,-31.809c-10.345,7.624 -37.664,24.794 -72.112,11.897c-29.96,19.161 -34.211,14.659 -34.211,14.659Z" style="fill:#fff;stroke:#000;stroke-width:2.61px;"/><path d="M383.678,119.502l16.167,-20.343c-11.464,-5.78 -22.878,-10.146 -34.211,-12.224c4.664,12.739 10.495,23.311 18.044,32.567" style="fill:#205871;stroke:#000;stroke-width:2.61px;"/></g><path d="M87.154,100.317l0,-72.561c97.179,-35.633 200.991,-33.138 312.388,-0.458l0,73.019c-114.289,-30.292 -218.355,-37.176 -312.388,0Z" style="fill:#fff;stroke:#000;stroke-width:2.61px;"/></g><g transform="matrix(1,0,0,1,-459.729,-1.00632)"><g transform="matrix(0.971622,-0.236538,0.236538,0.971622,-2.14123,134.643)"><text x="560.075px" y="76.245px" style="font-family:'SignPainter-HouseScript', 'SignPainter';font-size:64px;">S</text></g><g transform="matrix(0.98268,-0.185311,0.185311,0.98268,-2.74857,109.958)"><text x="586.856px" y="69.683px" style="font-family:'SignPainter-HouseScript', 'SignPainter';font-size:64px;">a</text></g><g transform="matrix(0.989702,-0.143143,0.143143,0.989702,-2.97985,88.337)"><text x="612.456px" y="64.879px" style="font-family:'SignPainter-HouseScript', 'SignPainter';font-size:64px;">l</text></g><g transform="matrix(0.995881,-0.090666,0.090666,0.995881,-3.05814,57.1028)"><path d="M676.205,56.516c0.96,-1.984 0.96,-3.264 0.64,-4.032c-0.192,-0.512 -0.832,-0.512 -1.088,0c-2.496,4.608 -5.504,8.768 -8.064,8.832c-2.432,0.064 -2.752,-2.816 -1.088,-6.464c1.536,-3.328 4.544,-7.936 5.952,-10.816c1.6,-3.264 -0.384,-6.528 -2.496,-6.784c-2.176,-0.256 -6.4,3.2 -9.28,6.208c0.704,-2.24 0.704,-4.416 -0.256,-6.016c-0.384,-0.576 -0.896,-0.576 -1.344,0.128c-3.456,5.248 -7.616,9.92 -11.648,9.984c0.064,-0.384 0.064,-0.832 0.064,-1.152c0.384,-4.608 -1.536,-4.992 -3.072,-7.04c-1.28,-1.728 -2.368,-2.304 -4.288,-2.112c-3.84,0.32 -7.68,3.968 -10.176,8.32c-2.88,4.992 -3.84,10.624 -1.024,14.4c2.496,3.392 5.76,3.456 8.064,2.688c4.736,-1.536 8.832,-8.128 10.112,-13.568c2.24,0.128 4.224,-0.448 5.952,-1.6c-1.92,3.392 -3.328,6.72 -4.032,8.704c-1.088,3.2 -0.64,5.248 0.512,6.528c0.576,0.64 1.024,0.256 1.216,-0.192c2.624,-6.016 5.632,-12.16 9.344,-16.192c4.096,-4.48 7.68,-6.144 8.448,-5.888c1.088,0.384 -4.48,7.168 -6.656,13.44c-1.856,5.44 -0.512,9.408 4.8,9.408c3.776,0 7.68,-3.2 9.408,-6.784Zm-32.704,-10.112c-1.28,-1.024 -1.728,-2.88 -1.536,-4.288c0.256,-1.856 1.6,-2.24 1.92,-0.192c0.192,1.152 0,2.688 -0.384,4.48Zm-0.448,1.728c-0.512,1.6 -1.28,3.392 -2.368,5.44c-3.072,5.76 -7.04,8 -8.768,6.592c-1.728,-1.408 -0.832,-7.36 1.984,-12.16c1.408,-2.368 3.2,-4.608 4.992,-6.08c0.064,2.496 1.92,4.992 4.16,6.208Z"/></g><g transform="matrix(1,0.000513659,-0.000513659,1,0.0296709,-0.353804)"><text x="688.806px" y="57.587px" style="font-family:'SignPainter-HouseScript', 'SignPainter';font-size:64px;">S</text></g><g transform="matrix(0.99824,0.0593094,-0.0593094,0.99824,4.65959,-42.3642)"><path d="M758.681,51.681c0.768,-1.792 0.64,-3.456 0.32,-4.16c-0.256,-0.576 -0.704,-0.448 -0.96,0.064c-2.048,4.736 -5.312,8.96 -8,8.832c-1.92,-0.064 -2.688,-2.624 -1.6,-6.144c1.088,-3.456 4.352,-7.808 7.36,-11.136c1.92,-2.112 0.32,-5.184 -0.96,-6.592c-0.448,-0.64 -1.024,-0.32 -1.792,0.192c-2.496,1.664 -4.736,2.688 -6.976,3.008c1.6,-4.16 2.24,-8.064 0.256,-8c-2.688,0.128 -8.96,8.64 -4.032,10.688c-3.52,8.128 -10.56,18.24 -17.6,17.92c-3.264,-0.128 -4.864,-4.288 -2.816,-10.112c4.48,3.584 8.768,1.984 11.776,-1.92c2.56,-3.264 3.2,-7.04 2.112,-8.576c-1.024,-1.408 -2.176,-2.304 -3.776,-3.264c-3.2,-1.856 -9.728,1.728 -13.76,9.664c-4.16,8.192 -1.408,16.128 6.72,16c7.616,-0.128 14.528,-8.192 19.84,-19.328c1.984,0 4.864,-0.64 7.68,-2.432c-2.752,3.072 -6.592,7.808 -7.936,12.096c-1.6,5.184 0.32,9.536 5.184,9.792c3.52,0.192 7.36,-2.752 8.96,-6.592Zm-36.224,-6.848c0.192,-0.32 0.32,-0.768 0.512,-1.088c2.944,-5.888 8.192,-9.92 9.6,-8.704c0.832,0.704 -0.512,4.032 -2.56,6.656c-1.92,2.432 -4.416,5.056 -7.552,3.136Z"/></g><g transform="matrix(0.993581,0.113121,-0.113121,0.993581,11.6324,-85.1918)"><text x="756.504px" y="59.905px" style="font-family:'SignPainter-HouseScript', 'SignPainter';font-size:64px;">v</text></g><g transform="matrix(0.990489,0.137589,-0.137589,0.990489,15.8925,-105.995)"><text x="774.654px" y="61.96px" style="font-family:'SignPainter-HouseScript', 'SignPainter';font-size:64px;">i</text></g><g transform="matrix(0.985828,0.167757,-0.167757,0.985828,21.8332,-131.182)"><text x="787.352px" y="63.635px" style="font-family:'SignPainter-HouseScript', 'SignPainter';font-size:64px;">c</text></g><g transform="matrix(0.97877,0.204962,-0.204962,0.97877,30.8514,-163.991)"><text x="807.034px" y="66.929px" style="font-family:'SignPainter-HouseScript', 'SignPainter';font-size:64px;">e</text></g><g transform="matrix(0.970395,0.241524,-0.241524,0.970395,41.6366,-197.599)"><text x="826.843px" y="71.04px" style="font-family:'SignPainter-HouseScript', 'SignPainter';font-size:64px;">s</text></g></g></g></svg>