<?xml version="1.0" encoding="UTF-8" standalone="no"?><!DOCTYPE svg PUBLIC "-//W3C//DTD SVG 1.1//EN" "http://www.w3.org/Graphics/SVG/1.1/DTD/svg11.dtd"><svg width="100%" height="100%" viewBox="0 0 9 9" version="1.1" xmlns="http://www.w3.org/2000/svg" xmlns:xlink="http://www.w3.org/1999/xlink" xml:space="preserve" xmlns:serif="http://www.serif.com/" style="fill-rule:evenodd;clip-rule:evenodd;stroke-linejoin:round;stroke-miterlimit:1.41421;"><g><path d="M7.093,0.039l-5.394,0c-0.893,0 -1.618,0.724 -1.618,1.618l0,5.394c0,0.894 0.725,1.618 1.618,1.618l5.394,0c0.894,0 1.618,-0.724 1.618,-1.618l0,-5.394c0,-0.894 -0.724,-1.618 -1.618,-1.618Zm-0.55,3.346l0.003,0.138c0,1.404 -1.068,3.022 -3.023,3.022c-0.599,0 -1.158,-0.175 -1.628,-0.477c0.083,0.01 0.168,0.015 0.254,0.015c0.497,0 0.955,-0.17 1.319,-0.454c-0.465,-0.009 -0.857,-0.317 -0.993,-0.738c0.066,0.012 0.132,0.018 0.201,0.018c0.097,0 0.19,-0.012 0.279,-0.037c-0.485,-0.098 -0.852,-0.527 -0.852,-1.041l0,-0.014c0.144,0.08 0.307,0.128 0.481,0.134c-0.284,-0.191 -0.472,-0.516 -0.472,-0.885c0,-0.194 0.052,-0.377 0.143,-0.534c0.524,0.643 1.307,1.066 2.19,1.111c-0.018,-0.078 -0.027,-0.16 -0.027,-0.243c0,-0.586 0.476,-1.062 1.062,-1.062c0.306,0 0.582,0.129 0.776,0.336c0.242,-0.048 0.469,-0.137 0.675,-0.258c-0.08,0.248 -0.248,0.456 -0.467,0.588c0.214,-0.025 0.419,-0.083 0.61,-0.167c-0.143,0.212 -0.323,0.399 -0.531,0.548Z" style="fill:#61b5c1;fill-rule:nonzero;"/></g></svg>